Coordinates
version=1
nRows=5
nColumns=40
inDegrees=yes

Units are S.I. units (second, meters, Newtons, ...)
Angles are in degrees.

endheader
time	pelvis_tilt	pelvis_list	pelvis_rotation	pelvis_tx	pelvis_ty	pelvis_tz	hip_flexion_r	hip_adduction_r	hip_rotation_r	knee_angle_r	knee_angle_r_beta	ankle_angle_r	subtalar_angle_r	mtp_angle_r	hip_flexion_l	hip_adduction_l	hip_rotation_l	knee_angle_l	knee_angle_l_beta	ankle_angle_l	subtalar_angle_l	mtp_angle_l	lumbar_extension	lumbar_bending	lumbar_rotation	arm_flex_r	arm_add_r	arm_rot_r	elbow_flex_r	pro_sup_r	wrist_flex_r	wrist_dev_r	arm_flex_l	arm_add_l	arm_rot_l	elbow_flex_l	pro_sup_l	wrist_flex_l	wrist_dev_l
     28.54114286	     -3.11302390	     -5.75752262	      6.79321644	      1.10042693	      0.93206026	      0.47032585	      5.88197517	      5.05805142	    -20.48777408	     10.28838783	     10.28838783	      9.61251048	     -1.33051249	     -7.67544092	     35.39538634	    -10.84611653	      1.19307803	     50.41908854	     50.41908854	      8.50052203	    -17.98793710	     12.25382239	     -9.56326321	      6.56114125	      5.04871251	     23.01918872	    -17.87459591	    -11.56344525	     47.27112300	     45.86703901	      0.00000000	      0.00000000	     -0.29410737	     -6.49034946	     -1.34433927	     29.43828387	     46.55056572	      0.00000000	      0.00000000
     28.55228571	     -3.12836362	     -5.78946923	      6.99228706	      1.09929885	      0.93169431	      0.47020444	      4.99257260	      5.28935613	    -20.58045791	      9.56902707	      9.56902707	      9.82972239	     -1.02051158	     -7.70460194	     35.92927848	    -10.50491323	      1.17449636	     47.02469272	     47.02469272	      8.38508483	    -17.81987544	     12.72818015	     -9.67572920	      6.48470842	      4.94885681	     25.34596012	    -17.88258875	    -11.55949277	     49.13374062	     45.80900831	      0.00000000	      0.00000000	     -1.72372530	     -6.45913732	     -1.27562026	     28.15550231	     46.50700150	      0.00000000	      0.00000000
     28.56342857	     -3.20922560	     -5.85973348	      7.16453780	      1.09823961	      0.93111987	      0.46997973	      4.14342446	      5.55150025	    -20.73464772	      8.79588767	      8.79588767	     10.03655315	     -0.55104337	     -7.78577604	     36.39834171	    -10.16869922	      1.14989760	     43.46642989	     43.46642989	      8.28526928	    -17.43235164	     13.08115948	     -9.70829663	      6.45970650	      4.90460175	     27.56512351	    -17.94864623	    -11.46969122	     51.12879817	     45.74279671	      0.00000000	      0.00000000	     -3.05329732	     -6.40478072	     -1.19554889	     26.78649346	     46.46619033	      0.00000000	      0.00000000
     28.57457143	     -3.27914260	     -6.03927937	      7.37161341	      1.09734378	      0.93030637	      0.46953207	      3.23210017	      5.89324523	    -21.34217524	      7.93773736	      7.93773736	     10.19639162	      0.65759868	     -8.24004856	     36.76382207	     -9.90601592	      1.18061845	     39.80394049	     39.80394049	      7.78323898	    -16.83408271	     12.11773878	     -9.73842878	      6.62281957	      5.36412362	     28.74367215	    -18.80655846	    -10.60742311	     55.22052406	     45.56243238	      0.00000000	      0.00000000	     -3.58416888	     -6.14269049	     -1.15424793	     24.05862167	     46.43091115	      0.00000000	      0.00000000
     28.58571429	     -3.38705770	     -6.17751491	      7.53098077	      1.09653756	      0.92942508	      0.46905624	      2.37686745	      6.22871089	    -21.46595153	      7.11527416	      7.11527416	     10.40243521	      1.15103481	     -8.23808695	     37.04211532	     -9.58709109	      1.20114772	     36.14139257	     36.14139257	      7.76119670	    -15.82339210	     12.30332831	     -9.70590692	      6.70556763	      5.26471031	     30.95589550	    -18.74161801	    -10.65220233	     57.27753114	     45.50306139	      0.00000000	      0.00000000	     -5.00145787	     -6.09014722	     -1.12849109	     23.10488351	     46.39383396	      0.00000000	      0.00000000
